normalP072_grf.mot
version=1
nRows=25
nColumns=19
inDegrees=yes
endheader
time	1_ground_force_vx	1_ground_force_vy	1_ground_force_vz	1_ground_force_px	1_ground_force_py	1_ground_force_pz	1_ground_torque_x	1_ground_torque_y	1_ground_torque_z	2_ground_force_vx	2_ground_force_vy	2_ground_force_vz	2_ground_force_px	2_ground_force_py	2_ground_force_pz	2_ground_torque_x	2_ground_torque_y	2_ground_torque_z
            1.905000	          133.954783	          438.555210	            2.051593	            0.297267	            0.003125	           -0.218753	            0.111767	            0.365916	            0.001712	          -29.458556	          355.413607	          -13.378787	            0.809838	            0.001542	           -0.315623	           -0.004887	            0.058967	           -0.002220
            1.906000	          132.702991	          429.384791	            2.707442	            0.297036	            0.003125	           -0.218560	            0.096304	            0.311611	            0.001965	          -32.709050	          362.141694	          -13.250805	            0.810262	            0.001542	           -0.315821	           -0.006353	            0.070341	           -0.002574
            1.907000	          131.037901	          420.053070	            3.270852	            0.297189	            0.003126	           -0.219011	            0.103076	            0.330419	            0.002573	          -35.950924	          369.268340	          -13.213926	            0.811390	            0.001539	           -0.315802	           -0.006191	            0.063589	           -0.002275
            1.908000	          128.240535	          410.568041	            3.657485	            0.296945	            0.003128	           -0.219124	            0.084960	            0.272004	            0.002423	          -39.487218	          375.196063	          -13.204720	            0.812233	            0.001537	           -0.315776	           -0.009567	            0.090904	           -0.003199
            1.909000	          126.468518	          401.318028	            4.244369	            0.296948	            0.003127	           -0.219085	            0.087437	            0.277462	            0.002934	          -43.390579	          381.525887	          -13.193868	            0.812330	            0.001536	           -0.315726	           -0.012575	            0.110567	           -0.003824
            1.910000	          125.683280	          392.064694	            5.022317	            0.296530	            0.003130	           -0.219416	            0.077472	            0.241670	            0.003096	          -47.041463	          387.614071	          -13.384191	            0.813597	            0.001533	           -0.315756	           -0.013642	            0.112411	           -0.003882
            1.911000	          124.083065	          381.456426	            5.527659	            0.296670	            0.003131	           -0.219817	            0.090864	            0.279333	            0.004048	          -50.977316	          393.225153	          -13.514980	            0.814183	            0.001533	           -0.316201	           -0.013166	            0.101556	           -0.003490
            1.912000	          122.547449	          369.494137	            6.150556	            0.296298	            0.003132	           -0.219860	            0.087646	            0.264263	            0.004399	          -54.828766	          398.832707	          -13.522827	            0.814962	            0.001530	           -0.315877	           -0.013250	            0.096384	           -0.003268
            1.913000	          121.097847	          358.090277	            6.530336	            0.296316	            0.003132	           -0.219854	            0.069147	            0.204471	            0.003729	          -58.355254	          402.522290	          -13.692084	            0.815288	            0.001530	           -0.316049	           -0.017999	            0.124153	           -0.004223
            1.914000	          119.667926	          348.120746	            7.152745	            0.296352	            0.003133	           -0.220198	            0.071818	            0.208923	            0.004293	          -61.781615	          406.369660	          -13.907164	            0.815849	            0.001527	           -0.315695	           -0.022643	            0.148933	           -0.005097
            1.915000	          117.624252	          337.517070	            7.658025	            0.295647	            0.003136	           -0.220430	            0.067216	            0.192872	            0.004376	          -64.817851	          409.815593	          -13.931548	            0.816562	            0.001525	           -0.315528	           -0.024897	            0.157416	           -0.005351
            1.916000	          115.174484	          326.673305	            8.086052	            0.295969	            0.003135	           -0.220298	            0.062662	            0.177730	            0.004399	          -67.602165	          412.781760	          -14.004241	            0.817458	            0.001523	           -0.315666	           -0.020597	            0.125767	           -0.004267
            1.917000	          112.692326	          315.193085	            8.680193	            0.295382	            0.003138	           -0.220602	            0.066249	            0.185294	            0.005103	          -69.790325	          414.946964	          -14.026047	            0.817874	            0.001523	           -0.315784	           -0.024303	            0.144495	           -0.004884
            1.918000	          108.979396	          303.874506	            9.198278	            0.295300	            0.003139	           -0.220960	            0.064978	            0.181184	            0.005484	          -71.483491	          415.668754	          -13.746351	            0.818575	            0.001521	           -0.315782	           -0.019295	            0.112200	           -0.003710
            1.919000	          104.921684	          292.397186	            9.945877	            0.295346	            0.003138	           -0.220727	            0.073080	            0.203660	            0.006927	          -72.952254	          417.191497	          -13.640190	            0.818945	            0.001520	           -0.315822	           -0.016961	            0.096994	           -0.003171
            1.920000	          102.695186	          284.424305	           10.376637	            0.295473	            0.003138	           -0.220767	            0.066659	            0.184618	            0.006735	          -73.891494	          418.872584	          -13.541199	            0.819050	            0.001519	           -0.315610	           -0.019769	            0.112068	           -0.003623
            1.921000	           99.511611	          276.058444	           10.507411	            0.294768	            0.003143	           -0.221592	            0.083170	            0.230725	            0.008782	          -73.972139	          420.469821	          -13.104399	            0.819878	            0.001517	           -0.315680	           -0.018151	            0.103171	           -0.003215
            1.922000	           95.985899	          263.383010	           11.059412	            0.294995	            0.003144	           -0.221862	            0.109955	            0.301715	            0.012669	          -73.841258	          420.709067	          -12.826557	            0.819680	            0.001518	           -0.315765	           -0.018734	            0.106737	           -0.003254
            1.923000	           92.966999	          248.796916	           10.823414	            0.294054	            0.003145	           -0.221455	            0.091734	            0.245497	            0.010680	          -73.019411	          421.265400	          -12.332046	            0.819451	            0.001519	           -0.315726	           -0.021653	            0.124922	           -0.003657
            1.924000	           90.036688	          235.563521	           10.392993	            0.294716	            0.003144	           -0.221666	            0.072241	            0.189005	            0.008339	          -71.783375	          421.819945	          -11.676267	            0.819711	            0.001519	           -0.315899	           -0.013238	            0.077790	           -0.002153
            1.925000	           86.486040	          224.645178	           10.399908	            0.294302	            0.003147	           -0.222131	            0.082090	            0.213227	            0.009871	          -70.200296	          423.173587	          -11.286392	            0.819942	            0.001518	           -0.315735	           -0.015160	            0.091388	           -0.002437
            1.926000	           82.813448	          213.888162	           10.415215	            0.294043	            0.003148	           -0.222190	            0.092412	            0.238678	            0.011622	          -68.128981	          423.485724	          -10.446814	            0.819713	            0.001518	           -0.315763	           -0.014210	            0.088326	           -0.002179
            1.927000	           78.706802	          201.057708	           10.346389	            0.293695	            0.003149	           -0.222273	            0.076227	            0.194724	            0.010020	          -66.124865	          424.519301	           -9.796697	            0.819679	            0.001519	           -0.316028	           -0.009006	            0.057818	           -0.001334
            1.928000	           74.838771	          186.313662	            9.918683	            0.294102	            0.003146	           -0.221678	            0.069493	            0.173004	            0.009210	          -63.849919	          426.513064	           -9.604181	            0.819649	            0.001519	           -0.316001	           -0.009772	            0.065279	           -0.001470
            1.929000	           71.252239	          173.483635	            9.107231	            0.293470	            0.003148	           -0.221731	            0.054483	            0.132653	            0.006964	          -61.338671	          427.944166	           -8.945014	            0.819649	            0.001519	           -0.315932	           -0.006507	            0.045395	           -0.000949
